<svg width="200" height="200" viewBox="0 0 200 200" xmlns="http://www.w3.org/2000/svg">
  <!-- Popped balloon fragments -->
  <path d="M70,80 C60,70 50,60 40,40" fill="none" stroke="#ff6b6b" stroke-width="3"/>
  <path d="M130,80 C140,70 150,60 160,40" fill="none" stroke="#ff6b6b" stroke-width="3"/>
  <path d="M100,100 C90,80 80,60 70,30" fill="none" stroke="#ff6b6b" stroke-width="3"/>
  <path d="M100,100 C110,80 120,60 130,30" fill="none" stroke="#ff6b6b" stroke-width="3"/>
  <!-- Balloon string -->
  <path d="M100,100 C102,120 98,140 100,160" 
        fill="none" stroke="#666" stroke-width="2" stroke-linecap="round"/>
  <!-- Balloon knot -->
  <circle cx="100" cy="160" r="3" fill="#ff6b6b"/>
  <!-- Explosion effect -->
  <circle cx="100" cy="70" r="30" fill="#ffdd59" opacity="0.6"/>
  <circle cx="100" cy="70" r="20" fill="#fff" opacity="0.8"/>
  <!-- Text -->
  <text x="100" y="180" font-family="Arial" font-size="10" text-anchor="middle" fill="#666">
    Stage 8/8 (100%) - POP!
  </text>
  <!-- Stars -->
  <path d="M60,40 L63,47 L70,48 L65,54 L66,61 L60,58 L54,61 L55,54 L50,48 L57,47 Z" fill="#ffdd59"/>
  <path d="M140,40 L143,47 L150,48 L145,54 L146,61 L140,58 L134,61 L135,54 L130,48 L137,47 Z" fill="#ffdd59"/>
  <path d="M100,20 L103,27 L110,28 L105,34 L106,41 L100,38 L94,41 L95,34 L90,28 L97,27 Z" fill="#ffdd59"/>
</svg>